<svg width="12" height="12" viewBox="0 0 12 12" fill="none" xmlns="http://www.w3.org/2000/svg">
<path fill-rule="evenodd" clip-rule="evenodd" d="M11.1429 6.85717H6.85714V11.1429C6.85714 11.6143 6.47143 12 6 12C5.52857 12 5.14286 11.6143 5.14286 11.1429V6.85717H0.857143C0.385714 6.85717 0 6.47146 0 6.00003C0 5.5286 0.385714 5.14289 0.857143 5.14289H5.14286V0.857173C5.14286 0.385745 5.52857 3.05176e-05 6 3.05176e-05C6.47143 3.05176e-05 6.85714 0.385745 6.85714 0.857173V5.14289H11.1429C11.6143 5.14289 12 5.5286 12 6.00003C12 6.47146 11.6143 6.85717 11.1429 6.85717Z" fill="white"/>
</svg>
